<svg width="32" height="32" viewBox="0 0 32 32" fill="none" xmlns="http://www.w3.org/2000/svg">
  <!-- Background Circle -->
  <circle cx="16" cy="16" r="15" fill="#1e40af" stroke="#3b82f6" stroke-width="1"/>
  
  <!-- Shield with Lock -->
  <g transform="translate(8, 6)">
    <!-- Shield Base -->
    <path d="M8 1L14 4V10C14 14 8 15 8 15C8 15 2 14 2 10V4L8 1Z" fill="#ffffff" stroke="#1e40af" stroke-width="0.8"/>
    
    <!-- Lock on Shield -->
    <rect x="6" y="7" width="4" height="3" rx="0.5" fill="#1e40af"/>
    <path d="M7 7V5C7 4.5 7.5 4 8 4C8.5 4 9 4.5 9 5V7" stroke="#1e40af" stroke-width="0.8" fill="none"/>
    
    <!-- Keyhole -->
    <circle cx="8" cy="8.5" r="0.8" fill="#ffffff"/>
    <rect x="7.8" y="8.5" width="0.4" height="1" fill="#ffffff"/>
  </g>
  
  <!-- Security Dots -->
  <circle cx="6" cy="6" r="1" fill="#3b82f6" opacity="0.7"/>
  <circle cx="26" cy="6" r="1" fill="#3b82f6" opacity="0.7"/>
  <circle cx="6" cy="26" r="1" fill="#3b82f6" opacity="0.7"/>
  <circle cx="26" cy="26" r="1" fill="#3b82f6" opacity="0.7"/>
</svg>