<svg width="64" height="64" viewBox="0 0 64 64" fill="none" xmlns="http://www.w3.org/2000/svg">
  <!-- Background Circle -->
  <circle cx="32" cy="32" r="30" fill="#1e40af" stroke="#3b82f6" stroke-width="2"/>
  
  <!-- Shield with Lock -->
  <g transform="translate(16, 12)">
    <!-- Shield Base -->
    <path d="M16 2L28 8V20C28 28 16 30 16 30C16 30 4 28 4 20V8L16 2Z" fill="#ffffff" stroke="#1e40af" stroke-width="1.5"/>
    
    <!-- Lock on Shield -->
    <rect x="12" y="14" width="8" height="6" rx="1" fill="#1e40af"/>
    <path d="M14 14V10C14 8.5 15 7 16 7C17 7 18 8.5 18 10V14" stroke="#1e40af" stroke-width="1.5" fill="none"/>
    
    <!-- Keyhole -->
    <circle cx="16" cy="17" r="1.5" fill="#ffffff"/>
    <rect x="15.5" y="17" width="1" height="2" fill="#ffffff"/>
  </g>
  
  <!-- Security Dots -->
  <circle cx="12" cy="12" r="2" fill="#3b82f6" opacity="0.7"/>
  <circle cx="52" cy="12" r="2" fill="#3b82f6" opacity="0.7"/>
  <circle cx="12" cy="52" r="2" fill="#3b82f6" opacity="0.7"/>
  <circle cx="52" cy="52" r="2" fill="#3b82f6" opacity="0.7"/>
  
  <!-- Central Security Ring -->
  <circle cx="32" cy="32" r="20" fill="none" stroke="#3b82f6" stroke-width="1" opacity="0.3"/>
</svg>
